<svg version="1.2" xmlns="http://www.w3.org/2000/svg" viewBox="0 0 60 61" width="60" height="61"><defs><clipPath clipPathUnits="userSpaceOnUse" id="cp1"><path d="m-405-19h1920v6419h-1920z"/></clipPath></defs><style>.a{fill:none}.b{fill:#f7654a}</style><g clip-path="url(#cp1)"><path class="a" d="m36.9 36.7v1.2h-1.2-12.6v-11.3-2.5h1.2 1.3 11.3v11.3z"/><path class="b" d="m60 21.3c0 5.5-2.1 10.6-6 14.4-2.9 3-6.7 5-10.8 5.7 0-0.3 0-0.5 0-0.7v-2.8-0.4c3.1-0.6 6-2.2 8.2-4.4 3-3 4.8-7.2 4.8-11.8 0-9.1-7.4-16.5-16.5-16.5-4.6 0-8.8 1.8-11.8 4.8-2.1 2.2-3.8 5.1-4.4 8.2q-0.2 0.7-0.3 1.3 0 0.6-0.1 1.2c0 0.4 0 0.7 0 1.1v2.7 2.5 11.4h12.6 1.3v2.7c0 0.3 0 0.7-0.1 1h-1.2-1.3-15.1v-15.1-1.2-1.3-2.8c0-0.3 0-0.6 0-1q0.1-0.6 0.1-1.2 0.1-0.6 0.2-1.3c0.7-4.1 2.7-7.9 5.7-10.8 3.8-3.9 8.9-6 14.4-6 5.4 0 10.5 2.1 14.3 6 3.9 3.8 6 8.9 6 14.3z"/><path class="b" d="m23 21.3c0-0.3 0-0.6 0.1-1h1.2 1.3 15.1v17.6 2.8c0 0.1 0 0.1 0 0.2 0 0.1 0 0.2 0 0.3q-0.1 0.2 0 0.5c-0.3 5-2.4 9.7-6 13.3-3.8 3.9-8.9 6-14.4 6-5.4 0-10.5-2.1-14.3-6-3.9-3.8-6-8.9-6-14.3 0-5.5 2.1-10.6 6-14.4 3-3 6.8-4.9 10.9-5.6 0 0.2 0 0.4 0 0.7v3.1c-3.2 0.7-6 2.3-8.2 4.5-3 3-4.9 7.2-4.9 11.7 0 9.2 7.4 16.6 16.6 16.6 4.5 0 8.7-1.9 11.7-4.9 2.2-2.2 3.8-5 4.5-8.2q0.1-0.6 0.2-1.2 0.1-0.7 0.1-1.3c0.1-0.3 0.1-0.7 0.1-1v-2.7-1.3-1.3-11.3h-11.4-1.3-1.2z"/></g></svg>